<?xml version="1.0" standalone="no"?>
<!DOCTYPE svg PUBLIC "-//W3C//DTD SVG 20010904//EN"
 "http://www.w3.org/TR/2001/REC-SVG-20010904/DTD/svg10.dtd">
<svg version="1.0" xmlns="http://www.w3.org/2000/svg"
 width="128.000000pt" height="128.000000pt" viewBox="0 0 128.000000 128.000000"
 preserveAspectRatio="xMidYMid meet">

<g transform="translate(0.000000,128.000000) scale(0.100000,-0.100000)"
fill="#000000" stroke="none">
<path d="M577 1268 c-21 -6 -60 -31 -87 -57 -87 -82 -472 -505 -481 -529 -5
-13 -9 -141 -9 -286 0 -252 1 -263 22 -306 36 -72 84 -90 230 -90 l118 0 0
173 c0 208 11 257 73 324 62 67 107 88 197 88 91 0 138 -22 199 -91 61 -69 71
-116 71 -321 l0 -173 118 0 c146 0 194 18 230 90 21 43 22 54 22 306 0 145 -4
273 -9 286 -14 38 -497 554 -535 572 -45 21 -112 27 -159 14z"/>
<path d="M575 466 c-37 -17 -70 -52 -84 -89 -6 -16 -11 -103 -11 -203 l0 -174
161 0 160 0 -3 189 c-3 207 -6 216 -70 264 -34 25 -113 32 -153 13z"/>
</g>
</svg>
