<?xml version="1.0" standalone="no"?>
<!DOCTYPE svg PUBLIC "-//W3C//DTD SVG 20010904//EN"
 "http://www.w3.org/TR/2001/REC-SVG-20010904/DTD/svg10.dtd">
<svg version="1.0" xmlns="http://www.w3.org/2000/svg"
 width="362.000000pt" height="267.000000pt" viewBox="0 0 362.000000 267.000000"
 preserveAspectRatio="xMidYMid meet">

<g transform="translate(0.000000,267.000000) scale(0.100000,-0.100000)"
fill="#000000" stroke="none">
<path d="M1940 2558 c-6 -24 -18 -65 -26 -92 -17 -58 -17 -66 -5 -66 6 0 38
-13 73 -29 l63 -30 12 22 c6 12 15 40 19 62 3 22 10 45 14 50 4 6 9 22 12 37
5 24 0 29 -63 57 -37 17 -73 31 -78 31 -6 0 -15 -19 -21 -42z"/>
<path d="M1867 2313 c-3 -5 -8 -24 -12 -43 -7 -35 -25 -102 -47 -170 -6 -19
-15 -38 -20 -41 -6 -4 -11 -27 -13 -52 -3 -48 -9 -72 -87 -319 -27 -87 -53
-160 -59 -164 -28 -17 -276 142 -370 237 -114 115 -125 200 -32 259 23 15 40
29 37 32 -2 3 8 6 23 6 16 1 42 3 58 6 17 2 79 5 138 5 97 1 108 3 105 19 -3
19 -33 29 -95 31 -26 1 -43 6 -43 13 0 6 -3 9 -6 6 -3 -3 -31 0 -62 7 -39 9
-61 10 -69 3 -9 -7 -14 -6 -19 6 -4 12 -10 13 -24 6 -24 -13 -33 -13 -25 0 3
6 -2 10 -13 10 -10 0 -24 -10 -31 -22 -9 -19 -10 -20 -6 -3 4 19 -1 20 -112
22 -64 1 -122 -2 -127 -6 -6 -5 -24 -11 -40 -15 -21 -5 -26 -10 -17 -15 10 -7
10 -10 1 -16 -7 -4 -15 -3 -19 3 -4 7 -12 8 -21 2 -18 -11 -24 -110 -7 -110 6
0 7 -3 4 -6 -17 -18 97 -138 193 -203 19 -13 37 -27 40 -30 11 -14 189 -121
265 -159 129 -65 233 -112 244 -112 6 0 19 -4 29 -10 9 -5 33 -15 52 -23 19
-8 49 -20 65 -27 52 -21 148 -50 153 -46 2 3 -15 10 -37 17 -69 21 -70 0 14
314 7 28 25 91 40 140 15 50 33 110 40 135 7 25 20 70 30 100 9 30 23 77 30
103 l14 48 -75 35 c-81 37 -81 37 -87 27z m-850 -159 c-3 -3 -12 -4 -19 -1 -8
3 -5 6 6 6 11 1 17 -2 13 -5z m-37 -14 c0 -5 -7 -10 -15 -10 -8 0 -15 5 -15
10 0 6 7 10 15 10 8 0 15 -4 15 -10z m120 0 c0 -5 -5 -10 -11 -10 -5 0 -7 5
-4 10 3 6 8 10 11 10 2 0 4 -4 4 -10z m-60 -15 c0 -8 -7 -15 -15 -15 -9 0 -12
6 -9 15 4 8 10 15 15 15 5 0 9 -7 9 -15z m117 9 c-3 -3 -12 -4 -19 -1 -8 3 -5
6 6 6 11 1 17 -2 13 -5z m88 -4 c3 -5 -1 -10 -9 -10 -8 0 -18 5 -21 10 -3 6 1
10 9 10 8 0 18 -4 21 -10z m105 0 c-8 -5 -22 -10 -30 -10 -13 0 -13 1 0 10 8
5 22 10 30 10 13 0 13 -1 0 -10z m53 -7 c-7 -2 -19 -2 -25 0 -7 3 -2 5 12 5
14 0 19 -2 13 -5z m-173 -29 c0 -8 -4 -12 -10 -9 -5 3 -10 10 -10 16 0 5 5 9
10 9 6 0 10 -7 10 -16z m37 -10 c-3 -3 -12 -4 -19 -1 -8 3 -5 6 6 6 11 1 17
-2 13 -5z m53 -4 c-8 -5 -22 -9 -30 -9 -10 0 -8 3 5 9 27 12 43 12 25 0z m183
3 c-13 -2 -33 -2 -45 0 -13 2 -3 4 22 4 25 0 35 -2 23 -4z m-630 -23 c-3 -12
-8 -19 -11 -16 -5 6 5 36 12 36 2 0 2 -9 -1 -20z"/>
<path d="M1600 2075 c0 -9 6 -12 16 -8 9 3 19 1 23 -4 7 -11 121 -24 121 -14
0 4 -12 8 -27 9 -15 1 -30 7 -34 13 -4 7 -11 9 -17 5 -6 -3 -13 -3 -16 2 -2 4
-18 9 -35 10 -22 2 -31 -2 -31 -13z"/>
<path d="M1993 1346 c1 -5 -7 -12 -18 -14 -38 -8 -124 -72 -150 -109 -52 -80
-42 -186 24 -252 41 -41 122 -84 190 -101 22 -5 60 -15 84 -20 117 -29 159
-71 138 -140 -13 -45 -55 -70 -116 -70 -75 0 -133 43 -150 113 -7 26 -9 27
-79 26 -39 0 -89 -3 -111 -7 -36 -7 -40 -11 -37 -34 5 -48 44 -120 87 -163 62
-59 124 -77 275 -77 154 -1 220 21 295 97 57 56 77 108 76 190 -1 121 -91 201
-278 246 -145 35 -187 52 -200 80 -26 54 10 91 92 94 67 3 89 -9 117 -62 23
-44 23 -45 67 -39 24 3 75 6 112 6 l69 0 -7 33 c-7 35 -36 91 -62 121 -32 36
-110 67 -194 76 -127 14 -226 17 -224 6z"/>
<path d="M0 920 l0 -410 328 2 327 3 0 80 0 80 -220 5 -220 5 -3 93 -3 92 201
0 200 0 0 74 0 74 -74 7 c-41 4 -130 6 -198 4 l-123 -4 0 74 0 73 213 -1 c207
-2 212 -2 213 18 0 12 1 47 1 79 l1 57 -322 3 -321 2 0 -410z"/>
<path d="M822 923 l3 -408 103 -5 c57 -3 105 -3 107 0 2 3 4 97 6 210 2 220 4
240 22 240 7 0 72 -90 145 -198 185 -275 158 -250 277 -254 55 -1 106 1 113 5
9 6 12 100 12 413 l0 405 -112 -3 -113 -3 0 -205 c-1 -237 -1 -240 -17 -240
-12 0 -120 153 -262 372 l-51 78 -118 0 -117 0 2 -407z"/>
<path d="M2856 1253 c-25 -69 -40 -111 -66 -178 -5 -11 -18 -49 -31 -85 -12
-36 -26 -69 -31 -74 -4 -6 -8 -17 -8 -25 0 -9 -7 -29 -15 -45 -8 -15 -15 -33
-15 -38 0 -6 -6 -24 -14 -41 -28 -66 -39 -93 -46 -117 -5 -14 -18 -50 -29 -79
-12 -31 -17 -57 -11 -61 13 -8 223 -2 230 7 4 5 12 28 19 53 23 79 12 75 179
78 l152 3 14 -36 c9 -20 18 -51 22 -70 5 -27 11 -35 28 -35 49 -1 202 -1 214
-1 16 1 15 26 -2 64 -12 28 -42 104 -94 242 -8 22 -21 54 -28 72 -8 17 -14 37
-14 45 0 8 -4 18 -9 23 -4 6 -16 35 -25 65 -10 30 -24 69 -31 85 -7 17 -28 73
-47 125 l-35 95 -140 3 -140 3 -27 -78z m187 -175 c22 -61 77 -243 77 -257 0
-7 -32 -11 -101 -11 l-101 0 6 28 c14 57 47 168 56 184 5 9 13 35 16 58 8 52
27 51 47 -2z"/>
<path d="M1660 253 c0 -161 -5 -153 101 -153 l89 0 0 30 c0 28 -1 29 -57 32
-51 3 -58 6 -61 25 -3 23 8 28 68 35 14 2 26 10 28 21 3 13 -4 17 -30 17 -42
0 -74 21 -65 44 5 12 20 16 62 16 48 0 55 2 55 20 0 19 -7 20 -95 20 l-95 0 0
-107z"/>
<path d="M1900 241 c0 -90 3 -121 14 -130 9 -7 42 -11 88 -9 71 3 73 4 76 30
3 26 1 27 -50 30 l-53 3 0 98 0 97 -37 0 -38 0 0 -119z"/>
<path d="M2270 271 c0 -95 -11 -121 -51 -121 -22 0 -24 -8 -6 -31 13 -17 67
-23 67 -8 0 5 3 8 8 8 37 -6 52 36 52 152 l0 89 -35 0 -35 0 0 -89z"/>
<path d="M2435 293 c-10 -37 -22 -73 -26 -78 -4 -6 -11 -35 -15 -65 -7 -53 -7
-54 12 -40 10 8 26 24 35 34 25 30 74 30 89 0 9 -15 22 -24 37 -24 16 0 22 -4
17 -12 -5 -7 -3 -8 5 -3 14 8 7 73 -10 90 -5 5 -9 18 -10 30 0 11 -8 45 -18
75 -18 54 -19 55 -58 58 l-41 3 -17 -68z m63 -25 c19 -19 14 -55 -8 -61 -26
-7 -33 6 -25 43 7 33 14 37 33 18z"/>
<path d="M2660 240 c0 -108 2 -120 18 -120 14 0 15 -2 2 -10 -11 -7 -4 -10 28
-10 23 0 42 5 42 10 0 6 15 10 33 10 49 0 97 55 97 109 0 48 -34 109 -67 122
-13 5 -53 9 -89 9 l-64 0 0 -120z m122 63 c39 -44 34 -121 -8 -144 -39 -20
-56 8 -50 84 4 73 27 95 58 60z m-49 -190 c-7 -2 -19 -2 -25 0 -7 3 -2 5 12 5
14 0 19 -2 13 -5z"/>
<path d="M2940 233 c0 -96 3 -124 12 -115 7 7 17 8 30 1 17 -9 18 -3 18 116
l0 125 -30 0 -30 0 0 -127z"/>
<path d="M3071 288 c0 -40 4 -93 7 -118 l7 -44 70 -4 c67 -3 71 -2 98 26 37
39 46 96 22 146 -23 49 -60 66 -140 66 l-65 0 1 -72z m133 10 c8 -12 13 -25
10 -29 -2 -4 0 -10 6 -14 17 -10 11 -43 -12 -80 -24 -35 -45 -41 -64 -16 -10
13 -10 119 1 149 7 19 42 14 59 -10z"/>
<path d="M3385 298 c-9 -35 -20 -70 -23 -78 -3 -8 -6 -19 -7 -25 -1 -5 -5 -20
-9 -32 -4 -13 -3 -30 1 -38 8 -13 13 -10 31 15 26 35 76 41 98 12 10 -12 13
-13 14 -3 0 11 4 11 19 -3 17 -16 18 -15 16 6 -1 13 -3 35 -4 51 -1 16 -7 27
-16 27 -11 0 -12 5 -5 25 5 13 5 27 1 30 -5 2 -12 21 -15 40 -6 33 -9 35 -45
35 l-38 0 -18 -62z m55 -23 c0 -8 5 -15 10 -15 14 0 12 -39 -3 -54 -11 -11
-17 -11 -30 -1 -20 14 -22 38 -5 65 15 24 28 26 28 5z m-53 -101 c-3 -3 -12
-4 -19 -1 -8 3 -5 6 6 6 11 1 17 -2 13 -5z"/>
</g>
</svg>
